<svg id="Layer_1" enable-background="new 0 0 512 512" height="512" viewBox="0 0 512 512" width="512" xmlns="http://www.w3.org/2000/svg"><g><g><path d="m184 456h256c13.255 0 24-10.745 24-24v-320c-34.366-34.366-53.634-53.634-88-88h-192c-13.255 0-24 10.745-24 24v384c0 13.255 10.745 24 24 24z" fill="#ffcd06"/></g><path d="m432 208h-237.333c-4.418 0-8 3.582-8 8v64 66.667 64c0 4.418 3.582 8 8 8h237.333c4.418 0 8-3.582 8-8v-64-66.667-64c0-4.418-3.582-8-8-8zm-8 64h-56v-48h56zm0 66.667h-56v-50.667h56zm-221.333-50.667h149.333v50.667h-149.333zm149.333-64v48h-149.333v-48zm-149.333 130.667h149.333v48h-149.333zm165.333 48v-48h56v48z" fill="#faa51e"/><g><path d="m464 112h-64c-13.255 0-24-10.745-24-24v-64z" fill="#faa51e"/></g><g><g><path d="m120 256h144v256h-144z" fill="#46508c" transform="matrix(0 1 -1 0 576 192)"/></g><g><path d="m112 424h-48c-8.837 0-16 7.163-16 16v16h80v-16c0-8.837-7.163-16-16-16z" fill="#73cddc"/></g><g><path d="m216 424h-48c-8.837 0-16 7.163-16 16v16h80v-16c0-8.837-7.163-16-16-16z" fill="#73cddc"/></g><g><path d="m320 424h-48c-8.837 0-16 7.163-16 16v16h80v-16c0-8.837-7.163-16-16-16z" fill="#73cddc"/></g><g><path d="m336 456h-288v16c0 8.837 7.163 16 16 16h256c8.837 0 16-7.163 16-16z" fill="#5f78be"/></g><g><path d="m48 360h80v48h-80z" fill="#5f78be" transform="matrix(0 1 -1 0 472 296)"/></g><g><path d="m152 360h80v48h-80z" fill="#5f78be" transform="matrix(0 1 -1 0 576 192)"/></g><g><path d="m256 360h80v48h-80z" fill="#5f78be" transform="matrix(0 1 -1 0 680 88)"/></g><g><path d="m192 184c-10.386 0-20.491 3.369-28.8 9.6l-108.8 81.6c-4.029 3.022-6.4 7.764-6.4 12.8v24h288v-24c0-5.036-2.371-9.778-6.4-12.8l-108.8-81.6c-8.309-6.231-18.414-9.6-28.8-9.6z" fill="#73cddc"/></g><g><path d="m177.6 212.8-76.8 57.6c-1.343 1.007-2.133 2.588-2.133 4.267 0 2.945 2.388 5.333 5.333 5.333h176c2.946 0 5.333-2.388 5.333-5.333 0-1.679-.79-3.259-2.133-4.267l-76.8-57.6c-4.154-3.116-9.207-4.8-14.4-4.8-5.193 0-10.246 1.684-14.4 4.8z" fill="#5f78be"/></g><g><path d="m112 344h-48c-8.837 0-16-7.163-16-16v-16h80v16c0 8.837-7.163 16-16 16z" fill="#5f78be"/></g><g><path d="m216 344h-48c-8.837 0-16-7.163-16-16v-16h80v16c0 8.837-7.163 16-16 16z" fill="#5f78be"/></g><g><path d="m320 344h-48c-8.837 0-16-7.163-16-16v-16h80v16c0 8.837-7.163 16-16 16z" fill="#5f78be"/></g><g><path d="m88 424h-24v-64h8c8.837 0 16 7.163 16 16z" fill="#73cddc"/></g><g><path d="m192 424h-24v-64h8c8.837 0 16 7.163 16 16z" fill="#73cddc"/></g><g><path d="m296 424h-24v-64h8c8.837 0 16 7.163 16 16z" fill="#73cddc"/></g></g><g><g><circle cx="256" cy="120" fill="#5f78be" r="64"/></g><path d="m280 110c3.313 0 6-2.687 6-6v-2.053c0-10.999-8.948-19.947-19.947-19.947h-4.053v-7.333c0-3.313-2.687-6-6-6s-6 2.687-6 6v7.333h-4.053c-10.999 0-19.947 8.948-19.947 19.947 0 8.6 5.481 16.204 13.64 18.924l28.926 9.643c3.251 1.083 5.435 4.113 5.435 7.539 0 4.382-3.565 7.947-7.947 7.947h-20.105c-4.382 0-7.947-3.565-7.947-7.947v-2.053c0-3.313-2.687-6-6-6s-6 2.687-6 6v2.053c0 10.999 8.948 19.947 19.947 19.947h4.051v7.333c0 3.313 2.687 6 6 6s6-2.687 6-6v-7.333h4.053c10.999 0 19.947-8.948 19.947-19.947 0-8.6-5.481-16.204-13.64-18.924l-28.926-9.643c-3.251-1.083-5.435-4.113-5.435-7.539 0-4.382 3.565-7.947 7.947-7.947h20.105c4.382 0 7.947 3.565 7.947 7.947v2.053c.002 3.313 2.689 6 6.002 6z" fill="#73cddc"/></g></g></svg>