<svg id="Capa_1" enable-background="new 0 0 512 512" height="512" viewBox="0 0 512 512" width="512" xmlns="http://www.w3.org/2000/svg"><g><path d="m474.532 251.261v250.612c0 5.594-4.533 10.127-10.116 10.127h-416.832c-5.584 0-10.116-4.533-10.116-10.127v-250.612c0-2.956.628-5.841 1.823-8.468.196-.464.422-.917.67-1.36h432.079c.247.443.474.896.67 1.36 1.194 2.627 1.822 5.512 1.822 8.468z" fill="#fce25c"/><path d="m474.532 251.261v250.612c0 5.594-4.533 10.127-10.116 10.127h-416.832c-5.584 0-10.116-4.533-10.116-10.127v-10.683h8.849c2.431 0 4.79-.865 6.655-2.442l147.862-125.177 12.692 9.488-118.069 99.959c-7.325 6.202-2.936 18.173 6.655 18.173h307.777c9.591 0 13.98-11.971 6.655-18.173l-118.069-99.958 12.692-9.488 123.519 104.563c6.696 5.666 16.957.907 16.957-7.86v-218.842h20.398c.247.443.474.896.67 1.36 1.193 2.627 1.821 5.512 1.821 8.468z" fill="#fbd307"/><path d="m472.709 242.793-21.067 15.752-140.476 105.026-12.692 9.488-36.304 27.145c-3.657 2.73-8.684 2.73-12.342 0l-36.304-27.145-12.692-9.488-161.541-120.778c.196-.464.422-.917.67-1.36 1.226-2.266 2.884-4.306 4.904-5.985l211.135-170.928 211.136 170.928c2.019 1.679 3.678 3.719 4.904 5.985.247.443.473.896.669 1.36z" fill="#fba615"/><path d="m412.098 41.521v246.593l-149.93 112.088c-3.658 2.734-8.679 2.734-12.337 0l-149.929-112.088v-246.593c0-5.69 4.612-10.302 10.302-10.302h291.591c5.69.001 10.303 4.613 10.303 10.302z" fill="#eff3f5"/><path d="m390.244 31.22v236.817c0 6.562-3.095 12.74-8.351 16.669l-119.725 89.509c-3.658 2.735-8.679 2.735-12.337 0l-149.929-112.091v25.99l149.929 112.087c3.658 2.734 8.679 2.734 12.337 0l149.929-112.087v-246.593c0-5.69-4.612-10.302-10.302-10.302h-11.551z" fill="#c9e2e7"/><circle cx="412.098" cy="31.22" fill="#fb636f" r="31.22"/><path d="m424.583 2.604c1.671 3.824 2.604 8.045 2.604 12.485 0 17.242-13.977 31.22-31.22 31.22-4.44 0-8.661-.933-12.485-2.604 4.818 11.026 15.814 18.734 28.615 18.734 17.242 0 31.22-13.977 31.22-31.22 0-12.801-7.708-23.797-18.734-28.615z" fill="#fa4954"/><path d="m370.471 65.119h-228.942c-4.267 0-7.726 3.459-7.726 7.726v31.22c0 4.268 3.459 7.726 7.726 7.726h228.943c4.267 0 7.726-3.459 7.726-7.726v-31.22c0-4.268-3.46-7.726-7.727-7.726z" fill="#b9e4ef"/><g><path d="m370.471 149.255h-187.317c-4.267 0-7.726-3.459-7.726-7.726s3.459-7.726 7.726-7.726h187.317c4.267 0 7.726 3.459 7.726 7.726s-3.459 7.726-7.726 7.726z" fill="#9b9b9b"/></g><g><path d="m370.471 176.312h-228.942c-4.267 0-7.726-3.459-7.726-7.726s3.459-7.726 7.726-7.726h228.943c4.267 0 7.726 3.459 7.726 7.726s-3.46 7.726-7.727 7.726z" fill="#9b9b9b"/></g><g><path d="m370.471 203.368h-228.942c-4.267 0-7.726-3.459-7.726-7.726 0-4.268 3.459-7.726 7.726-7.726h228.943c4.267 0 7.726 3.459 7.726 7.726s-3.46 7.726-7.727 7.726z" fill="#9b9b9b"/></g><g><path d="m370.471 230.426h-228.942c-4.267 0-7.726-3.459-7.726-7.726 0-4.268 3.459-7.726 7.726-7.726h228.943c4.267 0 7.726 3.459 7.726 7.726s-3.46 7.726-7.727 7.726z" fill="#9b9b9b"/></g><g><path d="m276.813 257.483h-135.284c-4.267 0-7.726-3.459-7.726-7.726 0-4.268 3.459-7.726 7.726-7.726h135.284c4.267 0 7.726 3.459 7.726 7.726s-3.459 7.726-7.726 7.726z" fill="#9b9b9b"/></g><g><path d="m370.471 287.661h-52.032c-4.267 0-7.726-3.459-7.726-7.726s3.459-7.726 7.726-7.726h52.032c4.267 0 7.726 3.459 7.726 7.726s-3.459 7.726-7.726 7.726z" fill="#fb636f"/></g></g></svg>