<svg id="Line" height="512" viewBox="0 0 64 64" width="512" xmlns="http://www.w3.org/2000/svg"><path d="m60 17h-39a3 3 0 0 0 -3 3v40a3 3 0 0 0 3 3h39a3 3 0 0 0 3-3v-40a3 3 0 0 0 -3-3zm-3 37a3 3 0 0 1 -3 3h-27a3 3 0 0 1 -3-3v-8a3 3 0 0 1 3-3h27a3 3 0 0 1 3 3zm0-19a3 3 0 0 1 -3 3h-26a3 3 0 0 1 -3-3v-8a3 3 0 0 1 3-3h26a3 3 0 0 1 3 3z" fill="#c4a2fc"/><path d="m54 26h-26a1 1 0 0 0 -1 1v8a1 1 0 0 0 1 1h26a1 1 0 0 0 1-1v-8a1 1 0 0 0 -1-1zm-20 6h-4a1 1 0 0 1 0-2h4a1 1 0 0 1 0 2zm18 0h-14a1 1 0 0 1 0-2h14a1 1 0 0 1 0 2z" fill="#c4a2fc"/><path d="m54 45h-27a1 1 0 0 0 -1 1v8a1 1 0 0 0 1 1h27a1 1 0 0 0 1-1v-8a1 1 0 0 0 -1-1zm-23 6h-1a1 1 0 0 1 0-2h1a1 1 0 0 1 0 2zm5 0h-1a1 1 0 0 1 0-2h1a1 1 0 0 1 0 2zm5.5 0h-1a1 1 0 0 1 0-2h1a1 1 0 0 1 0 2zm5.5 0h-1a1 1 0 0 1 0-2h1a1 1 0 0 1 0 2zm5 0h-1a1 1 0 0 1 0-2h1a1 1 0 0 1 0 2z" fill="#c4a2fc"/><g fill="#151a6a"><path d="m4 45h44a3 3 0 0 0 3-3v-38a3 3 0 0 0 -3-3h-44a3 3 0 0 0 -3 3v38a3 3 0 0 0 3 3zm44-2h-44a1 1 0 0 1 -1-1v-33h46v33a1 1 0 0 1 -1 1zm-44-40h44a1 1 0 0 1 1 1v3h-46v-3a1 1 0 0 1 1-1z"/><path d="m42 16h-14a3 3 0 0 0 -3 3v2a3 3 0 0 0 3 3h14a3 3 0 0 0 3-3v-2a3 3 0 0 0 -3-3zm1 5a1 1 0 0 1 -1 1h-14a1 1 0 0 1 -1-1v-2a1 1 0 0 1 1-1h14a1 1 0 0 1 1 1z"/><path d="m42 28h-14a3 3 0 0 0 -3 3v2a3 3 0 0 0 3 3h14a3 3 0 0 0 3-3v-2a3 3 0 0 0 -3-3zm1 5a1 1 0 0 1 -1 1h-14a1 1 0 0 1 -1-1v-2a1 1 0 0 1 1-1h14a1 1 0 0 1 1 1z"/><path d="m18.025 25.437a6 6 0 1 0 -8.05 0 5 5 0 0 0 -2.975 4.563v6a3 3 0 0 0 3 3h8a3 3 0 0 0 3-3v-6a5 5 0 0 0 -2.975-4.563zm-4.025-8.437a4 4 0 1 1 -4 4 4 4 0 0 1 4-4zm5 19a1 1 0 0 1 -1 1h-8a1 1 0 0 1 -1-1v-6a3 3 0 0 1 3-3h4a3 3 0 0 1 3 3z"/></g></svg>