<svg id="Capa_1" enable-background="new 0 0 511.995 511.995" height="512" viewBox="0 0 511.995 511.995" width="512" xmlns="http://www.w3.org/2000/svg"><g><path d="m498.852 421.457c-.958 12.362-2.081 24.724-3.348 37.087-.288 2.823-.587 5.645-.896 8.468-2.163 19.903-18.111 35.51-38.076 37.087-133.687 10.529-267.384 10.529-401.07 0-19.965-1.576-35.912-17.183-38.076-37.087-.309-2.823-.608-5.645-.896-8.468-1.267-12.362-2.39-24.714-3.348-37.076 0 0-.01-.01 0-.01-7.263-93.036-5.841-186.061 4.244-279.086 2.163-19.903 18.111-35.51 38.076-37.087 133.687-10.539 267.384-10.539 401.07 0 19.965 1.576 35.912 17.183 38.076 37.087 10.086 93.024 11.507 186.05 4.244 279.085z" fill="#e7ecf1"/><g fill="#c6d0da"><path d="m64.167 504.755c-2.91-.209-5.809-.429-8.708-.659-19.959-1.57-35.909-17.185-38.065-37.091-11.732-108.208-11.732-216.426 0-324.633 2.156-19.906 18.106-35.511 38.065-37.091 2.899-.23 5.798-.45 8.708-.659-10.11 6.981-17.101 18.169-18.504 31.105-12.214 112.645-12.214 225.28 0 337.925 1.402 12.934 8.394 24.122 18.504 31.103z"/><path d="m390.611 298.199c-41.958 37.091-259.263 14.736-307.344-37.196-40.89-44.166-68.385-89.913-65.873-118.632 2.156-19.906 18.106-35.511 38.065-37.091 133.692-10.529 267.384-10.529 401.077 0 19.959 1.58 35.909 17.185 38.065 37.091 3.233 36.966-43.246 102.116-103.99 155.828z"/><path d="m498.852 421.457c-.958 12.362-2.081 24.724-3.348 37.087-5.367-31.05-35.036-77.717-79.654-124.065-2.967-3.08-2.874-7.963.206-10.93 3.07-2.957 7.963-2.864 10.92.216 27.62 28.681 55.94 64.655 71.876 97.692z"/><path d="m96.144 334.479c-44.607 46.348-74.286 93.015-79.654 124.065-1.267-12.362-2.39-24.714-3.348-37.076 0 0-.01-.01 0-.01 15.937-33.038 44.257-69.012 71.876-97.692 2.957-3.08 7.85-3.173 10.92-.216 3.08 2.966 3.173 7.849.206 10.929z"/></g><path d="m453.794 139.995c-19.582 53.376-40.65 106.114-63.183 158.203-41.958 37.091-90.729 68.73-134.613 81.833-58.065-17.332-124.65-67.097-172.73-119.029 32.371-80.054 68.144-158.633 107.328-235.714 10.068-19.812 32.853-29.713 54.161-23.391 66.49 19.718 129.6 47.222 189.308 82.503 19.132 11.303 27.39 34.737 19.729 55.595z" fill="#f4dd45"/><path d="m401.265 257.832c3.496-3.087 6.939-6.217 10.33-9.377-6.845 16.651-13.846 33.229-20.984 49.745-41.958 37.091-90.729 68.73-134.613 81.833-58.065-17.332-124.65-67.097-172.73-119.029 4.856-12.015 9.786-23.988 14.809-35.94 47.704 50.31 112.164 97.763 168.575 114.602 43.883-13.104 92.655-44.743 134.613-81.834z" fill="#eab14d"/><path d="m235.158 103.357 22.75-1.081c6.513-.309 12.457-3.804 15.895-9.345l12.007-19.354c8.657-13.953 29.556-11.923 35.365 3.435l8.058 21.303c2.307 6.099 7.467 10.672 13.799 12.229l22.117 5.439c15.945 3.921 20.473 24.425 7.661 34.696l-17.77 14.247c-5.087 4.079-7.842 10.4-7.367 16.903l1.662 22.715c1.198 16.377-16.903 27.018-30.63 18.008l-19.041-12.498c-5.451-3.578-12.314-4.245-18.352-1.783l-21.09 8.6c-15.205 6.2-30.919-7.726-26.591-23.566l6.003-21.971c1.718-6.29.232-13.023-3.976-18.005l-14.696-17.4c-10.595-12.545-2.206-31.793 14.196-32.572z" fill="#da4a54"/><path d="m337.871 309.75c-1.031 0-2.077-.207-3.083-.645l-189.308-82.503c-3.911-1.705-5.701-6.258-3.996-10.17s6.258-5.701 10.17-3.996l189.308 82.503c3.911 1.705 5.701 6.258 3.996 10.17-1.267 2.906-4.107 4.641-7.087 4.641z" fill="#f6f1f1"/><path d="m238.957 307.175c-1.031 0-2.077-.207-3.083-.645l-108.179-47.146c-3.911-1.705-5.701-6.258-3.996-10.17 1.705-3.911 6.257-5.701 10.17-3.996l108.179 47.146c3.911 1.705 5.701 6.258 3.996 10.17-1.266 2.906-4.106 4.641-7.087 4.641z" fill="#f6f1f1"/></g></svg>