<svg id="Capa_1" enable-background="new 0 0 512 512" height="512" viewBox="0 0 512 512" width="512" xmlns="http://www.w3.org/2000/svg"><g><g><path d="m165 331h-15v-100.501c36.299-17.399 60-54 60-94.499 0-57.9-47.102-105-105-105s-105 47.1-105 105c0 40.499 23.701 77.1 60 94.499v235.501c0 8.399 6.599 15 15 15h90c8.401 0 15-6.601 15-15v-45l-30-15 30-15v-45c0-8.401-6.599-15-15-15zm-60-150c-24.902 0-45-20.101-45-45 0-24.901 20.098-45 45-45s45 20.099 45 45c0 24.899-20.098 45-45 45z" fill="#ffe666"/></g><path d="m150 136c0 24.899-20.098 45-45 45v300h60c8.401 0 15-6.601 15-15v-45l-30-15 30-15v-45c0-8.401-6.599-15-15-15h-15v-100.501c36.299-17.399 60-54 60-94.499 0-57.9-47.102-105-105-105v60c24.902 0 45 20.099 45 45z" fill="#fabe2c"/><g><path d="m467 301h-60c-8.291 0-15-6.709-15-15v-135c0-16.538-13.447-30-30-30s-30 13.462-30 30v45c0 8.291-6.709 15-15 15h-60c-8.291 0-15-6.709-15-15v-45c0-66.167 53.818-120 120-120s120 53.833 120 120v135c0 8.291-6.709 15-15 15z" fill="#cef"/></g><g id="Key_1_"><g><path d="m497 481h-270c-8.291 0-15-6.709-15-15v-180c0-8.291 6.709-15 15-15h270c8.291 0 15 6.709 15 15v180c0 8.291-6.709 15-15 15z" fill="#ffe666"/></g><g><path d="m180 391v30h-45c-8.401 0-15-6.601-15-15 0-8.401 6.599-15 15-15z" fill="#ff9100"/></g></g><path d="m392 151v135c0 8.291 6.709 15 15 15h60c8.291 0 15-6.709 15-15v-135c0-66.167-53.818-120-120-120v90c16.553 0 30 13.462 30 30z" fill="#b3ccff"/><path d="m362 481h135c8.291 0 15-6.709 15-15v-180c0-8.291-6.709-15-15-15h-135z" fill="#fabe2c"/><g><path d="m392 421h-60c-24.814 0-45-20.186-45-45s20.186-45 45-45h60c24.814 0 45 20.186 45 45s-20.186 45-45 45z" fill="#704c55"/></g><path d="m362 331v90h30c24.814 0 45-20.186 45-45s-20.186-45-45-45z" fill="#5b362a"/></g></svg>